<svg width="16" height="16" xmlns="http://www.w3.org/2000/svg" xmlns:xlink="http://www.w3.org/1999/xlink" xmlns:svgjs="http://svgjs.com/svgjs" viewBox="0 0.03 16 15.94" fill="#fff"><svg xmlns="http://www.w3.org/2000/svg" width="16" height="16" viewBox="1.805 1.277 14.18 14.127"><path paint-order="stroke fill markers" fill-rule="evenodd" d="M15.425 5.592a7.087 7.087 0 0 0-.653-1.202 7.31 7.31 0 0 0-.866-1.045 7.064 7.064 0 0 0-5.012-2.068 7.227 7.227 0 0 0-2.76.555A7.095 7.095 0 0 0 1.948 6.92a7.07 7.07 0 0 0 .413 4.172 7.214 7.214 0 0 0 1.519 2.244c.322.32.676.61 1.049.86a7 7 0 0 0 2.539 1.065 7.234 7.234 0 0 0 2.852 0 7.085 7.085 0 0 0 5.519-5.498 6.999 6.999 0 0 0 0-2.843 6.887 6.887 0 0 0-.414-1.328zM8.893 2.308c1.534 0 2.934.569 4 1.506-.017.024-.878 1.33-3.163 2.184-1.035-1.895-2.172-3.4-2.262-3.52.457-.109.935-.17 1.425-.17zm-1.449.176l-.002.002s-.008.002-.017.002l.02-.004zm-1.134.403A35.252 35.252 0 0 1 8.558 6.36c-2.906.77-5.43.74-5.59.736a6.041 6.041 0 0 1 3.342-4.21zm-1.921 9.482c0 .002.002.002.002.002l-.002-.002zm-.001 0a5.993 5.993 0 0 1-1.55-4.03c0-.062.005-.127.007-.189.107.002 3.097.07 6.215-.86.173.338.34.682.493 1.026l-.24.07C6.048 9.44 4.39 12.365 4.388 12.37zm.785.729l-.135-.106c.043.035.094.06.139.096l-.004.01zm3.722 1.275a6.036 6.036 0 0 1-3.718-1.285c.045-.096 1.226-2.54 4.747-3.76a.403.403 0 0 0 .04-.014c.851 2.207 1.205 4.053 1.293 4.58a6.02 6.02 0 0 1-2.362.479zm3.381-1.03c-.06-.363-.383-2.132-1.176-4.308 1.954-.313 3.647.222 3.771.264a6.028 6.028 0 0 1-2.595 4.044zm-1.547-5.26a17.793 17.793 0 0 0-.533-1.187c2.393-.97 3.363-2.371 3.373-2.386a5.987 5.987 0 0 1 1.377 3.769c-.088-.018-2.136-.455-4.217-.195z"/></svg></svg>