<svg width="17" height="16" xmlns="http://www.w3.org/2000/svg" xmlns:xlink="http://www.w3.org/1999/xlink" xmlns:svgjs="http://svgjs.com/svgjs" viewBox="0.476 0 16.048 16" fill="#fff"><svg xmlns="http://www.w3.org/2000/svg" width="17" height="16" viewBox="1.915 1.436 14.17 14.127"><path paint-order="stroke fill markers" fill-rule="evenodd" d="M10.929 1.436h-4.18c-2.12 0-3.889 1.557-3.889 3.272 0 1.752 1.162 3.146 3.159 3.146.136 0 .271-.006.404-.015a1.76 1.76 0 0 0-.222.81c0 .486.268.766.6 1.088-.25 0-.493.006-.757.006-2.428 0-4.129 1.664-4.129 3.263 0 1.573 2.05 2.557 4.478 2.557 2.768 0 4.47-1.564 4.47-3.139 0-1.261-.274-1.896-1.624-2.904-.387-.289-1.228-.885-1.228-1.283 0-.465.132-.695.839-1.244.721-.565 1.233-1.305 1.233-2.227 0-1.002-.41-1.912-1.186-2.353h1.098l.934-.977zM9.512 12.155c.034.145.053.293.053.447 0 1.272-.822 2.264-3.181 2.264-1.679 0-2.89-1.057-2.89-2.328 0-1.246 1.421-2.323 3.1-2.303.391.004.757.067 1.087.174.912.63 1.646 1.025 1.83 1.746zM6.824 7.219c-1.127-.035-2.197-1.064-2.39-2.537-.197-1.474.56-2.603 1.686-2.57 1.127.035 2.09 1.244 2.284 2.719.195 1.473-.454 2.422-1.58 2.388zm7.331-3.67V1.629h-.964V3.55h-1.926v.959h1.926V6.43h.964V4.51h1.93v-.96h-1.93z"/></svg></svg>