<svg id="SvgjsSvg67857" width="21" height="21" xmlns="http://www.w3.org/2000/svg" version="1.1" xmlns:xlink="http://www.w3.org/1999/xlink" xmlns:svgjs="http://svgjs.com/svgjs" viewBox="0.0299072265625 0 20.940185546875 21" fill="#ffffff" opacity="1"><defs id="SvgjsDefs67858"></defs><svg version="1.1" xmlns="http://www.w3.org/2000/svg" xmlns:xlink="http://www.w3.org/1999/xlink" width="21" height="21" viewBox="1.00702 1.98376 19.9858 20.0429"><g><path fill="#ffffff" stroke="none" paint-order="stroke fill markers" fill-rule="evenodd" d=" M 20.992804050445557 20.979628801345825 C 20.992804050445557 20.979628801345825 19.94878101348877 22.026681125164032 19.94878101348877 22.026681125164032 C 19.94878101348877 22.026681125164032 14.181817054748535 16.243072628974915 14.181817054748535 16.243072628974915 C 13.850081443786621 16.542194068431854 13.485730171203613 16.808730363845825 13.088012218475342 17.040899515151978 C 12.69029426574707 17.273832380771637 12.275517463684082 17.473161816596985 11.845076560974121 17.639142394065857 C 11.413991928100586 17.805886685848236 10.958016395568848 17.930626690387726 10.477900981903076 18.01310783624649 C 9.997034549713135 18.096352696418762 9.52475118637085 18.13784784078598 9.06105089187622 18.13784784078598 C 7.933879375457764 18.13784784078598 6.88127326965332 17.921971261501312 5.904090881347656 17.489708960056305 C 4.926050186157227 17.05795580148697 4.072356700897217 16.476005494594574 3.343654155731201 15.744621753692627 C 2.6143078804016113 15.013747155666351 2.0425682067871094 14.157623410224915 1.628542423248291 13.177014231681824 C 1.213658332824707 12.196914196014404 1.0070209503173828 11.157753586769104 1.0070209503173828 10.060805261135101 C 1.0070209503173828 8.93127179145813 1.213658332824707 7.8755640387535095 1.628542423248291 6.894954860210419 C 2.0425682067871094 5.914854824542999 2.6143078804016113 5.0587310791015625 3.343654155731201 4.32709276676178 C 4.072356700897217 3.59647274017334 4.926050186157227 3.0231778621673584 5.904090881347656 2.6072081327438354 C 6.88127326965332 2.1920021176338196 7.933879375457764 1.9837626814842224 9.06105089187622 1.9837626814842224 C 10.154748439788818 1.9837626814842224 11.190295696258545 2.1920021176338196 12.168229103088379 2.6072081327438354 C 13.145518779754639 3.0231778621673584 13.999212265014648 3.59647274017334 14.728665828704834 4.32709276676178 C 15.457261085510254 5.0587310791015625 16.037583827972412 5.914854824542999 16.468668460845947 6.894954860210419 C 16.899002075195312 7.8755640387535095 17.114973545074463 8.93127179145813 17.114973545074463 10.060805261135101 C 17.114973545074463 10.52667099237442 17.073023796081543 11.000428438186646 16.99073362350464 11.481823027133942 C 16.90758514404297 11.963981330394745 16.783345222473145 12.42119163274765 16.617799282073975 12.852944791316986 C 16.45160961151123 13.285207092761993 16.252696990966797 13.70041310787201 16.021275997161865 14.09932655096054 C 15.788996696472168 14.498239994049072 15.524101734161377 14.8643137216568 15.225840091705322 15.196020305156708 C 15.225840091705322 15.196020305156708 20.992804050445557 20.979628801345825 20.992804050445557 20.979628801345825 C 20.992804050445557 20.979628801345825 20.992804050445557 20.979628801345825 20.992804050445557 20.979628801345825 Z M 1.852238655090332 10.060805261135101 C 1.852238655090332 11.057961583137512 2.033985137939453 11.988929331302643 2.399087429046631 12.852944791316986 C 2.7634387016296387 13.717469394207 3.276920795440674 14.481692850589752 3.9402847290039062 15.146378874778748 C 4.602897644042969 15.811574041843414 5.373549938201904 16.3349729180336 6.2520270347595215 16.71683007478714 C 7.1298604011535645 17.09919637441635 8.066702365875244 17.29012495279312 9.06105089187622 17.29012495279312 C 10.055292129516602 17.29012495279312 10.98290729522705 17.09919637441635 11.845076560974121 16.71683007478714 C 12.706602096557617 16.3349729180336 13.468671321868896 15.811574041843414 14.132035255432129 15.146378874778748 C 14.794648170471191 14.481692850589752 15.316713333129883 13.717469394207 15.698123455047607 12.852944791316986 C 16.078782558441162 11.988929331302643 16.26986312866211 11.057961583137512 16.26986312866211 10.060805261135101 C 16.26986312866211 9.06364893913269 16.078782558441162 8.125044047832489 15.698123455047607 7.243972301483154 C 15.316713333129883 6.363664269447327 14.794648170471191 5.590785384178162 14.132035255432129 4.925590217113495 C 13.468671321868896 4.2609041929244995 12.706602096557617 3.7461607456207275 11.845076560974121 3.379832446575165 C 10.98290729522705 3.014522433280945 10.055292129516602 2.8314855694770813 9.06105089187622 2.8314855694770813 C 8.066702365875244 2.8314855694770813 7.1298604011535645 3.014522433280945 6.2520270347595215 3.379832446575165 C 5.373549938201904 3.7461607456207275 4.602897644042969 4.2609041929244995 3.9402847290039062 4.925590217113495 C 3.276920795440674 5.590785384178162 2.7634387016296387 6.363664269447327 2.399087429046631 7.243972301483154 C 2.033985137939453 8.125044047832489 1.852238655090332 9.06364893913269 1.852238655090332 10.060805261135101 C 1.852238655090332 10.060805261135101 1.852238655090332 10.060805261135101 1.852238655090332 10.060805261135101 Z"></path></g></svg></svg>