<svg xmlns="http://www.w3.org/2000/svg" version="1.0" width="20" height="20" preserveAspectRatio="xMidYMid meet" style=""><rect id="backgroundrect" width="100%" height="100%" x="0" y="0" fill="none" stroke="none" class="" style=""/>


<g class="currentLayer" style=""><title>Layer 1</title><g transform="translate(0,17) scale(0.10000000149011612,-0.10000000149011612) " fill="#5474fd" stroke="none" id="svg_1" class="" fill-opacity="1">
<path d="M48.74183464050293,146.1111068725586 c-20.087661743164062,-14 -23.100811004638672,-25 -23.100811004638672,-86 l0,-69 l45.19723892211914,0 l45.19723892211914,0 l0,45 c0,41 -2.0087661743164062,45 -25.109577178955078,45 c-31.135875701904297,0 -34.149024963378906,26 -4.0175323486328125,35 c23.100811004638672,8 22.09642791748047,38 -1.0043830871582031,43 c-8.035064697265625,1 -25.109577178955078,-5 -37.162174224853516,-13 z" id="svg_2" fill="#5474fd"/>
<path d="M148.17576026916504,145.1111068725586 c-19.08327865600586,-13 -22.09642791748047,-24 -22.09642791748047,-85 l0,-70 l48.21038818359375,3 l47.20600509643555,3 l0,40 c0,36 -3.0131492614746094,40 -27.118343353271484,43 c-32.1402587890625,4 -37.162174224853516,28 -8.035064697265625,37 c25.109577178955078,8 27.118343353271484,45 2.0087661743164062,45 c-10.043830871582031,0 -28.122726440429688,-7 -40.175323486328125,-16 z" id="svg_3" fill="#5474fd"/>
</g></g></svg>