<svg width="59" height="58" xmlns="http://www.w3.org/2000/svg" xmlns:xlink="http://www.w3.org/1999/xlink" xmlns:svgjs="http://svgjs.com/svgjs" viewBox="0.5 0 58 58" fill="#5474fd"><svg xmlns="http://www.w3.org/2000/svg" width="59" height="58" viewBox="1.734 1.234 56.531 56.531"><path paint-order="stroke fill markers" fill-rule="evenodd" d="M58.266 54.812l-2.954 2.954L39 41.453a18.608 18.608 0 0 1-3.094 2.25 24.153 24.153 0 0 1-3.515 1.688c-1.22.47-2.51.821-3.868 1.054-1.36.235-2.696.352-4.007.352-3.189 0-6.166-.609-8.93-1.828-2.766-1.218-5.181-2.86-7.242-4.922-2.064-2.061-3.68-4.476-4.852-7.242-1.173-2.765-1.758-5.696-1.758-8.79 0-3.185.585-6.163 1.758-8.93 1.171-2.763 2.788-5.178 4.852-7.241 2.06-2.061 4.476-3.679 7.242-4.852 2.764-1.171 5.741-1.758 8.93-1.758 3.093 0 6.022.587 8.789 1.758 2.764 1.173 5.179 2.79 7.242 4.852 2.06 2.063 3.702 4.478 4.922 7.242 1.217 2.766 1.828 5.744 1.828 8.93 0 1.313-.119 2.65-.352 4.007a20.467 20.467 0 0 1-1.054 3.867 24.486 24.486 0 0 1-1.688 3.516 18.661 18.661 0 0 1-2.25 3.094l16.313 16.312zM4.125 24.016c0 2.812.514 5.438 1.547 7.874a20.134 20.134 0 0 0 4.36 6.47 20.88 20.88 0 0 0 6.538 4.429c2.483 1.079 5.133 1.617 7.946 1.617 2.812 0 5.436-.538 7.875-1.617a21.164 21.164 0 0 0 6.468-4.43 21.19 21.19 0 0 0 4.43-6.469c1.077-2.436 1.617-5.062 1.617-7.874 0-2.813-.54-5.46-1.617-7.946a21.008 21.008 0 0 0-4.43-6.539 20.252 20.252 0 0 0-6.468-4.36c-2.44-1.03-5.063-1.546-7.875-1.546-2.813 0-5.463.516-7.946 1.547a20.007 20.007 0 0 0-6.539 4.36 19.986 19.986 0 0 0-4.36 6.538c-1.032 2.485-1.546 5.133-1.546 7.946z"/></svg></svg>