<svg xmlns="http://www.w3.org/2000/svg" version="1.0" width="195" height="171" preserveAspectRatio="xMidYMid meet" style=""><rect id="backgroundrect" width="100%" height="100%" x="0" y="0" fill="none" stroke="none" class="" style=""/>


<g class="currentLayer" style=""><title>Layer 1</title><g transform="translate(0,17) scale(0.10000000149011612,-0.10000000149011612) " fill="#5474fd" stroke="none" id="svg_1" class="" fill-opacity="1">
<path d="M23,35 c-20,-14 -23,-25 -23,-86 l0,-69 l45,0 l45,0 l0,45 c0,41 -2,45 -25,45 c-31,0 -34,26 -4,35 c23,8 22,38 -1,43 c-8,1 -25,-5 -37,-13 z" id="svg_2" fill="#5474fd"/>
<path d="M122,34 c-19,-13 -22,-24 -22,-85 l0,-70 l48,3 l47,3 l0,40 c0,36 -3,40 -27,43 c-32,4 -37,28 -8,37 c25,8 27,45 2,45 c-10,0 -28,-7 -40,-16 z" id="svg_3" fill="#5474fd"/>
</g></g></svg>