<svg id="SvgjsSvg11625" width="61" height="62" xmlns="http://www.w3.org/2000/svg" version="1.1" xmlns:xlink="http://www.w3.org/1999/xlink" xmlns:svgjs="http://svgjs.com/svgjs" viewBox="0 0.5 61 61" fill="#ff6363" opacity="1"><defs id="SvgjsDefs11626"></defs><svg version="1.1" xmlns="http://www.w3.org/2000/svg" xmlns:xlink="http://www.w3.org/1999/xlink" width="61" height="62" viewBox="1.04681 1.54683 59.9063 59.9063"><g><path fill="#ff6363" stroke="none" paint-order="stroke fill markers" fill-rule="evenodd" d=" M 31 1.5468292236328125 C 35.12416458129883 1.5468292236328125 39.015620708465576 2.320217251777649 42.67179346084595 3.8669933080673218 C 46.328073501586914 5.41402393579483 49.514108657836914 7.547587156295776 52.23429775238037 10.265391826629639 C 54.952341079711914 12.985742211341858 57.085877418518066 16.17170375585556 58.632761001586914 19.828113317489624 C 60.17964458465576 23.484268307685852 60.953086376190186 27.37564730644226 60.953086376190186 31.49995917081833 C 60.953086376190186 35.62630760669708 60.17964458465576 39.51539546251297 58.632761001586914 43.171805024147034 C 57.085877418518066 46.82796001434326 54.952341079711914 50.016212701797485 52.23429775238037 52.73427194356918 C 49.514108657836914 55.45436775684357 46.328073501586914 57.58589440584183 42.67179346084595 59.1326704621315 C 39.015620708465576 60.67944651842117 35.12416458129883 61.453089118003845 31 61.453089118003845 C 26.873475074768066 61.453089118003845 22.984272003173828 60.67944651842117 19.328099250793457 59.1326704621315 C 15.67181921005249 57.58589440584183 12.483638286590576 55.45436775684357 9.765594959259033 52.73427194356918 C 7.045405864715576 50.016212701797485 4.914015293121338 46.82796001434326 3.3671317100524902 43.171805024147034 C 1.8202481269836426 39.51539546251297 1.0468063354492188 35.62630760669708 1.0468063354492188 31.49995917081833 C 1.0468063354492188 27.37564730644226 1.8202481269836426 23.484268307685852 3.3671317100524902 19.828113317489624 C 4.914015293121338 16.17170375585556 7.045405864715576 12.985742211341858 9.765594959259033 10.265391826629639 C 12.483638286590576 7.547587156295776 15.67181921005249 5.41402393579483 19.328099250793457 3.8669933080673218 C 22.984272003173828 2.320217251777649 26.873475074768066 1.5468292236328125 31 1.5468292236328125 C 31 1.5468292236328125 31 1.5468292236328125 31 1.5468292236328125 Z M 31 59.06240874528885 C 34.84296178817749 59.06240874528885 38.428860664367676 58.337389290332794 41.75780391693115 56.88276809453964 C 45.08438682556152 55.430183470249176 48.01561212539673 53.48576682806015 50.54686641693115 51.04671788215637 C 52.98359966278076 48.51551407575607 54.92820119857788 45.58666968345642 56.38270950317383 42.25763899087906 C 57.83517932891846 38.93089944124222 58.56248712539673 35.34500616788864 58.56248712539673 31.49995917081833 C 58.56248712539673 27.656948745250702 57.83517932891846 24.07080090045929 56.38270950317383 20.742024779319763 C 54.92820119857788 17.415285229682922 52.98359966278076 14.484149694442749 50.54686641693115 11.95294588804245 C 48.01561212539673 9.516188085079193 45.08438682556152 7.571771442890167 41.75780391693115 6.117150247097015 C 38.428860664367676 4.664565622806549 34.84296178817749 3.937255024909973 31 3.937255024909973 C 27.15478515625 3.937255024909973 23.56877899169922 4.664565622806549 20.242088794708252 6.117150247097015 C 16.91325283050537 7.571771442890167 13.984280586242676 9.516188085079193 11.453026294708252 11.95294588804245 C 9.014147281646729 14.484149694442749 7.069545745849609 17.415285229682922 5.617183208465576 20.742024779319763 C 4.162567615509033 24.07080090045929 3.437405586242676 27.656948745250702 3.437405586242676 31.49995917081833 C 3.437405586242676 35.34500616788864 4.162567615509033 38.93089944124222 5.617183208465576 42.25763899087906 C 7.069545745849609 45.58666968345642 9.014147281646729 48.51551407575607 11.453026294708252 51.04671788215637 C 13.984280586242676 53.48576682806015 16.91325283050537 55.430183470249176 20.242088794708252 56.88276809453964 C 23.56877899169922 58.337389290332794 27.15478515625 59.06240874528885 31 59.06240874528885 C 31 59.06240874528885 31 59.06240874528885 31 59.06240874528885 Z M 46.046870708465576 20.812286496162415 C 46.328073501586914 20.438830196857452 46.725791454315186 20.249938189983368 47.242170333862305 20.249938189983368 C 47.756296157836914 20.249938189983368 48.20229387283325 20.438830196857452 48.578125 20.812286496162415 C 48.85932779312134 21.188033938407898 48.999982833862305 21.634043097496033 48.999982833862305 22.148277401924133 C 48.999982833862305 22.66454827785492 48.810940742492676 23.062443435192108 48.43746995925903 23.34374487400055 C 48.43746995925903 23.34374487400055 27.906232833862305 43.312328457832336 27.906232833862305 43.312328457832336 C 27.81171178817749 43.50122046470642 27.64691686630249 43.61781418323517 27.41399383544922 43.66389161348343 C 27.178925037384033 43.71226018667221 26.96799612045288 43.73415333032608 26.78120708465576 43.73415333032608 C 26.499897003173828 43.73415333032608 26.24068832397461 43.71226018667221 26.007765293121338 43.66389161348343 C 25.772696495056152 43.61781418323517 25.607901573181152 43.50122046470642 25.515526294708252 43.312328457832336 C 25.515526294708252 43.312328457832336 17.499905586242676 35.29663759469986 17.499905586242676 35.29663759469986 C 17.124181747436523 34.9231812953949 16.9375 34.47717213630676 16.9375 33.96090126037598 C 16.9375 33.446666955947876 17.124181747436523 33.046735227108 17.499905586242676 32.76543378829956 C 17.78121566772461 32.3919774889946 18.17893362045288 32.203085482120514 18.6953125 32.203085482120514 C 19.20943832397461 32.203085482120514 19.655436038970947 32.3919774889946 20.0311598777771 32.76543378829956 C 20.0311598777771 32.76543378829956 26.78120708465576 39.51539546251297 26.78120708465576 39.51539546251297 C 26.78120708465576 39.51539546251297 46.046870708465576 20.812286496162415 46.046870708465576 20.812286496162415 C 46.046870708465576 20.812286496162415 46.046870708465576 20.812286496162415 46.046870708465576 20.812286496162415 Z"></path></g></svg></svg>