<svg id="SvgjsSvg12995" width="63" height="60" xmlns="http://www.w3.org/2000/svg" version="1.1" xmlns:xlink="http://www.w3.org/1999/xlink" xmlns:svgjs="http://svgjs.com/svgjs" viewBox="0.2081298828125 0 62.583740234375 60" fill="#00a2ff" opacity="1"><defs id="SvgjsDefs12996"></defs><svg version="1.1" xmlns="http://www.w3.org/2000/svg" xmlns:xlink="http://www.w3.org/1999/xlink" width="63" height="60" viewBox="1.2734 1.10918 61.3125 58.7813"><g><path fill="#00a2ff" stroke="none" paint-order="stroke fill markers" fill-rule="evenodd" d=" M 62.585904121398926 29.656054854393005 C 62.585904121398926 30.31310373544693 62.49138307571411 30.921784043312073 62.30459403991699 31.48413234949112 C 62.11565923690796 32.046735227108 61.83445644378662 32.56300610303879 61.46087837219238 33.03116297721863 C 61.08515453338623 33.501356422901154 60.663296699523926 33.874812722206116 60.19530487060547 34.15611416101456 C 59.7250599861145 34.437415599823 59.21093416213989 34.67238503694534 58.64842128753662 34.85924047231674 C 58.92962408065796 35.32943391799927 59.16254711151123 35.8217750787735 59.351481914520264 36.33575481176376 C 59.53827095031738 36.852280259132385 59.6327919960022 37.43881285190582 59.6327919960022 38.093570590019226 C 59.6327919960022 38.65617346763611 59.53827095031738 39.218521773815155 59.351481914520264 39.78112465143204 C 59.16254711151123 40.34372752904892 58.92962408065796 40.859998404979706 58.64842128753662 41.32790070772171 C 58.27269744873047 41.703648149967194 57.85073232650757 42.055211305618286 57.38274049758911 42.38259017467499 C 56.912495613098145 42.71226018667221 56.44450378417969 42.96937733888626 55.97651195526123 43.15623277425766 C 56.25771474838257 43.626426219940186 56.49063777923584 44.14040595293045 56.67967987060547 44.70300883054733 C 56.86636161804199 45.265611708164215 56.96088266372681 45.82796001434326 56.96088266372681 46.390562891960144 C 56.96088266372681 47.04735720157623 56.86636161804199 47.634144365787506 56.67967987060547 48.14837867021561 C 56.49063777923584 48.66464954614639 56.25771474838257 49.15673613548279 55.97651195526123 49.62489300966263 C 55.60078811645508 50.095086455345154 55.17893028259277 50.49272704124451 54.71083116531372 50.82010591030121 C 54.24069356918335 51.14977592229843 53.726460456848145 51.36081564426422 53.16405487060547 51.45297050476074 C 53.53752565383911 51.92316395044327 53.818835735321045 52.4155051112175 54.00777053833008 52.929484844207764 C 54.1945595741272 53.446010291576385 54.288973331451416 54.03254288434982 54.288973331451416 54.687300622463226 C 54.288973331451416 55.34434950351715 54.148425579071045 56.001398384571075 53.86711549758911 56.65615612268448 C 53.58591270446777 57.3132050037384 53.21018886566162 57.87555330991745 52.74208974838257 58.34371018409729 C 52.17968416213989 58.813903629779816 51.56878423690796 59.18735992908478 50.91400337219238 59.46866136789322 C 50.25707674026489 59.74996280670166 49.553908824920654 59.89048624038696 48.804606914520264 59.89048624038696 C 48.804606914520264 59.89048624038696 30.242111206054688 59.89048624038696 30.242111206054688 59.89048624038696 C 29.585184574127197 59.89048624038696 28.835882663726807 59.79833137989044 27.992166996002197 59.60918480157852 C 27.148344039916992 59.42258393764496 26.25624132156372 59.14128249883652 25.320257663726807 58.765535056591034 C 24.382020950317383 58.48423361778259 23.44378423690796 58.1326704621315 22.507800579071045 57.710845589637756 C 21.56956386566162 57.28902071714401 20.631327152252197 56.891125559806824 19.695236206054688 56.51537811756134 C 18.570210456848145 56.047475814819336 17.46717882156372 55.57957351207733 16.39054012298584 55.10912549495697 C 15.311755657196045 54.641223192214966 14.538313865661621 54.405999183654785 14.070214748382568 54.405999183654785 C 14.070214748382568 54.405999183654785 1.2733955383300781 54.405999183654785 1.2733955383300781 54.405999183654785 C 1.2733955383300781 54.405999183654785 1.2733955383300781 26.984327614307404 1.2733955383300781 26.984327614307404 C 1.2733955383300781 26.984327614307404 2.398421287536621 26.843549609184265 2.398421287536621 26.843549609184265 C 7.742132663726807 26.843549609184265 11.398412704467773 26.843549609184265 13.367154121398926 26.843549609184265 C 14.210869789123535 26.843549609184265 14.984311580657959 26.751394748687744 15.687479496002197 26.562248170375824 C 16.39054012298584 26.37564730644226 17.115702152252197 25.999899864196777 17.867149829864502 25.437296986579895 C 18.71086549758911 24.96939468383789 19.671096324920654 24.312345802783966 20.749988079071045 23.46869605779648 C 21.826626777648926 22.624791741371155 23.11644744873047 21.594286561012268 24.61708974838257 20.374889373779297 C 27.52192211151123 17.93813157081604 29.233600616455078 14.89040231704712 29.749979496002197 11.234247326850891 C 30.264105319976807 7.578092336654663 30.52342128753662 5.468713402748108 30.52342128753662 4.906110525131226 C 30.52342128753662 4.343507647514343 30.663969039916992 3.8053436279296875 30.945279121398926 3.2888181805610657 C 31.226481914520264 2.774838447570801 31.600059986114502 2.3749067187309265 32.07030487060547 2.0936052799224854 C 32.538296699523926 1.7201489806175232 33.030428409576416 1.4607406854629517 33.546807289123535 1.320217251777649 C 34.060933113098145 1.1794392466545105 34.55317211151123 1.1091775298118591 35.0234169960022 1.1091775298118591 C 35.77261161804199 1.1091775298118591 36.52191352844238 1.2036235332489014 37.27336120605469 1.3904789686203003 C 38.02266311645508 1.5793709754943848 38.72572374343872 2.0014504194259644 39.38275766372681 2.6562081575393677 C 40.03753852844238 3.3130024671554565 40.5539174079895 4.181091070175171 40.929641246795654 5.257673680782318 C 41.30321931838989 6.336547434329987 41.492154121398926 7.766984343528748 41.492154121398926 9.54669326543808 C 41.492154121398926 11.141837894916534 41.37349319458008 12.664684236049652 41.14057016372681 14.117014288902283 C 40.90550136566162 15.571635484695435 40.600051403045654 16.953703820705414 40.226473331451416 18.26551043987274 C 39.94527053833008 19.579353630542755 39.59368658065796 20.77482110261917 39.171828746795654 21.85140371322632 C 38.74997091293335 22.930277466773987 38.39838695526123 23.84444350004196 38.11718416213989 24.593647241592407 C 38.11718416213989 24.593647241592407 57.242085456848145 24.593647241592407 57.242085456848145 24.593647241592407 C 58.08590841293335 24.593647241592407 58.81096315383911 24.71227753162384 59.421863079071045 24.9452103972435 C 60.03050994873047 25.180179834365845 60.61716270446777 25.531742990016937 61.179675579071045 25.999899864196777 C 61.6476674079895 26.470093309879303 61.99925136566162 27.008511900901794 62.23432016372681 27.6169376373291 C 62.46724319458008 28.227909088134766 62.585904121398926 28.90685111284256 62.585904121398926 29.656054854393005 C 62.585904121398926 29.656054854393005 62.585904121398926 29.656054854393005 62.585904121398926 29.656054854393005 C 62.585904121398926 29.656054854393005 62.585904121398926 29.656054854393005 62.585904121398926 29.656054854393005 Z M 57.242085456848145 32.609338104724884 C 57.7101845741272 32.609338104724884 58.1320424079895 32.5388218164444 58.507766246795654 32.398298382759094 C 58.88134431838989 32.25777494907379 59.16254711151123 32.046735227108 59.351481914520264 31.76543378829956 C 59.6327919960022 31.48413234949112 59.86571502685547 31.18093776702881 60.0546498298645 30.85152232646942 C 60.24143886566162 30.52414345741272 60.33585262298584 30.12624830007553 60.33585262298584 29.656054854393005 C 60.33585262298584 28.90685111284256 60.0546498298645 28.249802231788635 59.49213695526123 27.68745392560959 C 58.92962408065796 27.124851047992706 58.178176403045654 26.843549609184265 57.242085456848145 26.843549609184265 C 57.242085456848145 26.843549609184265 48.804606914520264 26.843549609184265 48.804606914520264 26.843549609184265 C 48.804606914520264 26.937995612621307 48.804606914520264 26.937995612621307 48.804606914520264 26.843549609184265 C 48.804606914520264 26.843549609184265 34.32024908065796 26.843549609184265 34.32024908065796 26.843549609184265 C 34.32024908065796 26.843549609184265 35.16396474838257 25.155995547771454 35.16396474838257 25.155995547771454 C 37.78759431838989 18.687335312366486 39.10155487060547 13.484149694442749 39.10155487060547 9.54669326543808 C 39.10155487060547 6.452886581420898 38.58517599105835 4.648993372917175 37.55467128753662 4.132722496986389 C 36.52191352844238 3.6184881925582886 35.67819786071777 3.3593344688415527 35.0234169960022 3.3593344688415527 C 34.742106914520264 3.3593344688415527 34.32024908065796 3.4998579025268555 33.75773620605469 3.7811593413352966 C 33.195223331451416 4.062460780143738 32.91402053833008 4.438208222389221 32.91402053833008 4.906110525131226 C 32.91402053833008 5.468713402748108 32.865633487701416 6.406809151172638 32.77336549758911 7.718615770339966 C 32.67895174026489 9.032713532447815 32.39764165878296 10.531121015548706 31.929649829864502 12.218675076961517 C 31.459404945373535 13.906229138374329 30.780484199523926 15.641897201538086 29.89052724838257 17.421860694885254 C 28.998531818389893 19.20360618829727 27.756990909576416 20.75063681602478 26.163973331451416 22.062443435192108 C 24.568809986114502 23.37628662586212 23.232855319976807 24.47705352306366 22.156216621398926 25.367035269737244 C 21.077324867248535 26.259053587913513 20.068814277648926 26.984327614307404 19.132723331451416 27.54667592048645 C 18.194486618041992 28.109278798103333 17.25624990463257 28.531103670597076 16.320266246795654 28.812405109405518 C 15.38202953338623 29.09370654821396 14.397658824920654 29.23422998189926 13.367154121398926 29.23422998189926 C 12.615706443786621 29.23422998189926 11.796130657196045 29.23422998189926 10.906173706054688 29.23422998189926 C 10.014070987701416 29.23422998189926 9.100081443786621 29.23422998189926 8.163990497589111 29.23422998189926 C 7.320274829864502 29.23422998189926 6.498445987701416 29.23422998189926 5.703117370605469 29.23422998189926 C 4.905428409576416 29.23422998189926 4.226507663726807 29.23422998189926 3.663994789123535 29.23422998189926 C 3.663994789123535 29.23422998189926 3.663994789123535 52.015573382377625 3.663994789123535 52.015573382377625 C 3.663994789123535 52.015573382377625 14.070214748382568 52.015573382377625 14.070214748382568 52.015573382377625 C 14.724995613098145 52.015573382377625 15.592958450317383 52.22635853290558 16.671850204467773 52.64818340539932 C 17.748488903045654 53.0702628493309 19.08444356918335 53.61071801185608 20.679606914520264 54.26547574996948 C 21.428908824920654 54.641223192214966 22.24848461151123 55.03886377811432 23.140587329864502 55.46068865060806 C 24.030436992645264 55.88276809453964 24.898399829864502 56.234331250190735 25.74211549758911 56.51537811756134 C 26.67820644378662 56.79667955636978 27.52192211151123 57.05608785152435 28.273369789123535 57.28902071714401 C 29.022671699523926 57.52399015426636 29.679598331451416 57.640583872795105 30.242111206054688 57.640583872795105 C 30.242111206054688 57.640583872795105 45.851494789123535 57.640583872795105 45.851494789123535 57.640583872795105 C 45.851494789123535 57.640583872795105 48.804606914520264 57.640583872795105 48.804606914520264 57.640583872795105 C 49.27259874343872 57.640583872795105 49.69456386566162 57.54817444086075 50.07028770446777 57.359282433986664 C 50.443758487701416 57.172426998615265 50.773348331451416 56.93745756149292 51.05465841293335 56.65615612268448 C 51.33586120605469 56.46930068731308 51.54679012298584 56.18799924850464 51.68744516372681 55.812251806259155 C 51.82810020446777 55.43879550695419 51.89837408065796 55.06304806470871 51.89837408065796 54.687300622463226 C 51.89837408065796 54.21939831972122 51.82810020446777 53.82175773382187 51.68744516372681 53.492087721824646 C 51.54679012298584 53.164708852767944 51.33586120605469 52.85922312736511 51.05465841293335 52.57792168855667 C 50.773348331451416 52.296874821186066 50.443758487701416 52.085835099220276 50.07028770446777 51.94531166553497 C 49.69456386566162 51.804533660411835 49.27259874343872 51.73427194356918 48.804606914520264 51.73427194356918 C 48.804606914520264 51.73427194356918 48.523404121398926 51.73427194356918 48.523404121398926 51.73427194356918 C 48.523404121398926 51.73427194356918 48.523404121398926 49.34359157085419 48.523404121398926 49.34359157085419 C 48.523404121398926 49.34359157085419 51.75771903991699 49.34359157085419 51.75771903991699 49.34359157085419 C 52.13129711151123 49.34359157085419 52.50702095031738 49.273329854011536 52.882744789123535 49.13280642032623 C 53.25632286071777 48.992028415203094 53.58591270446777 48.78124326467514 53.86711549758911 48.4999418258667 C 54.05390453338623 48.21864038705826 54.24069356918335 47.891261518001556 54.42962837219238 47.51551407575607 C 54.6164174079895 47.14205777645111 54.71083116531372 46.76631033420563 54.71083116531372 46.390562891960144 C 54.71083116531372 46.016852021217346 54.6164174079895 45.64110457897186 54.42962837219238 45.265611708164215 C 54.24069356918335 44.89190083742142 54.05390453338623 44.56248539686203 53.86711549758911 44.28118395805359 C 53.58591270446777 44.09432852268219 53.25632286071777 43.90747308731079 52.882744789123535 43.71858108043671 C 52.50702095031738 43.53198021650314 52.13129711151123 43.437279641628265 51.75771903991699 43.437279641628265 C 51.75771903991699 43.437279641628265 50.773348331451416 43.437279641628265 50.773348331451416 43.437279641628265 C 50.773348331451416 43.437279641628265 50.773348331451416 41.046853840351105 50.773348331451416 41.046853840351105 C 50.773348331451416 41.046853840351105 54.288973331451416 41.046853840351105 54.288973331451416 41.046853840351105 C 54.662551403045654 41.046853840351105 55.03827524185181 40.97633755207062 55.41399908065796 40.835814118385315 C 55.7875771522522 40.69529068470001 56.1171669960022 40.48425096273422 56.398369789123535 40.20294952392578 C 56.67967987060547 39.92164808511734 56.912495613098145 39.59426921606064 57.10153770446777 39.218521773815155 C 57.28832674026489 38.84506547451019 57.38274049758911 38.46931803226471 57.38274049758911 38.093570590019226 C 57.38274049758911 37.62566828727722 57.28832674026489 37.20384341478348 57.10153770446777 36.828095972537994 C 56.912495613098145 36.4543851017952 56.67967987060547 36.17333823442459 56.398369789123535 35.98419165611267 C 56.1171669960022 35.70289021730423 55.7875771522522 35.470211923122406 55.41399908065796 35.281065344810486 C 55.03827524185181 35.09446448087692 54.662551403045654 34.999763906002045 54.288973331451416 34.999763906002045 C 54.288973331451416 34.999763906002045 53.16405487060547 34.999763906002045 53.16405487060547 34.999763906002045 C 53.16405487060547 34.999763906002045 53.16405487060547 32.609338104724884 53.16405487060547 32.609338104724884 C 53.16405487060547 32.609338104724884 57.242085456848145 32.609338104724884 57.242085456848145 32.609338104724884 C 57.242085456848145 32.609338104724884 57.242085456848145 32.609338104724884 57.242085456848145 32.609338104724884 C 57.242085456848145 32.609338104724884 57.242085456848145 32.609338104724884 57.242085456848145 32.609338104724884 C 57.242085456848145 32.609338104724884 57.242085456848145 32.609338104724884 57.242085456848145 32.609338104724884 C 57.242085456848145 32.609338104724884 57.242085456848145 32.609338104724884 57.242085456848145 32.609338104724884 Z"></path></g></svg></svg>