<svg width="31" height="31" xmlns="http://www.w3.org/2000/svg" xmlns:xlink="http://www.w3.org/1999/xlink" xmlns:svgjs="http://svgjs.com/svgjs" fill="#fff"><svg xmlns="http://www.w3.org/2000/svg" width="31" height="31" viewBox="3 3 30 30"><path paint-order="stroke fill markers" fill-rule="evenodd" d="M23.9 20.801c3.673-5.085 2.445-12.126-2.742-15.726-5.187-3.6-12.37-2.397-16.042 2.689-3.672 5.085-2.444 12.125 2.743 15.725a11.698 11.698 0 0 0 12.502.508l8.485 8.268c.916.945 2.44.983 3.404.085a2.328 2.328 0 0 0 0-3.423l-8.35-8.126zm-9.399.772c-4.099 0-7.422-3.255-7.424-7.273-.001-4.019 3.32-7.277 7.419-7.279 4.093-.001 7.415 3.249 7.423 7.262.007 4.02-3.312 7.282-7.413 7.29h-.005z"/></svg></svg>