<svg width="16" height="13" xmlns="http://www.w3.org/2000/svg" xmlns:xlink="http://www.w3.org/1999/xlink" xmlns:svgjs="http://svgjs.com/svgjs" viewBox="0 0.023 16 12.953" fill="#fff"><svg xmlns="http://www.w3.org/2000/svg" width="16" height="13" viewBox="1.833 1.986 14.179 11.479"><path paint-order="stroke fill markers" fill-rule="evenodd" d="M1.833 12.164a8.25 8.25 0 0 0 4.459 1.3c5.35 0 8.277-4.415 8.277-8.246 0-.124-.003-.25-.01-.374a5.844 5.844 0 0 0 1.453-1.5 5.716 5.716 0 0 1-1.671.455 2.901 2.901 0 0 0 1.28-1.602 5.876 5.876 0 0 1-1.849.703 2.91 2.91 0 0 0-2.123-.914 2.902 2.902 0 0 0-2.834 3.557A8.267 8.267 0 0 1 2.82 2.515a2.894 2.894 0 0 0 .9 3.869 2.887 2.887 0 0 1-1.318-.36v.034A2.903 2.903 0 0 0 4.735 8.9a2.93 2.93 0 0 1-1.313.05 2.906 2.906 0 0 0 2.717 2.013 5.844 5.844 0 0 1-3.613 1.24c-.235 0-.465-.012-.693-.039z"/></svg></svg>