<svg width="0" height="0" class="hidden">
  <symbol class="icon-white" xmlns="http://www.w3.org/2000/svg" xmlns:xlink="http://www.w3.org/1999/xlink" xmlnsSvgjs="http://svgjs.com/svgjs" fill="#fff" opacity=".702" viewBox="0 0 21 21" id="basket"><svg xmlns="http://www.w3.org/2000/svg" viewBox="2 1.999 20 20" id="card">
      <path paint-order="stroke fill markers" fill-rule="evenodd" d="M21.946 9.765l.024.006-2.5 11.25-.024-.006c-.125.559-.6.984-1.196.984H5.75c-.596 0-1.071-.425-1.196-.984l-.024.006-2.5-11.25.024-.006C2.034 9.677 2 9.594 2 9.5c0-.691.56-1.25 1.25-1.25h2.5a6.25 6.25 0 1112.5 0h2.5c.69 0 1.25.559 1.25 1.25 0 .094-.034.177-.054.265zM12 4.5a3.75 3.75 0 00-3.75 3.75h7.5A3.75 3.75 0 0012 4.5zm5 8.75c-.69 0-1.25-.56-1.25-1.25v-1.25h-7.5V12a1.25 1.25 0 11-2.5 0v-1.25h-.942l1.945 8.75h10.494l1.945-8.75h-.942V12c0 .69-.56 1.25-1.25 1.25z"></path>
    </svg>
  </symbol>
  <symbol class="icon-white" xmlns="http://www.w3.org/2000/svg" xmlns:xlink="http://www.w3.org/1999/xlink" xmlnsSvgjs="http://svgjs.com/svgjs" fill="#B7BACD" opacity=".702" viewBox="0.062 0 19.876 22" id="tooltip"><svg xmlns="http://www.w3.org/2000/svg" viewBox="1.007 1.992 18.986 21.015" id="Icon_3">
      <path paint-order="stroke fill markers" fill-rule="evenodd" d="M19.993 13.308c0 2.678-2.125 4.849-4.747 4.849-1.554 0-2.914-.775-3.774-1.957l-.023.017-.95-1.293-.949 1.293-.013-.01c-.866 1.177-2.231 1.95-3.784 1.95-2.621 0-4.746-2.171-4.746-4.85a4.88 4.88 0 01.962-2.9l-.013-.01S8.918 1.993 10.5 1.993c1.582 0 8.543 8.406 8.543 8.406l-.013.01c.596.81.963 1.808.963 2.9zM8.918 19.773v-1.616c0-.892.708-1.617 1.582-1.617.874 0 1.582.725 1.582 1.617v1.616c.874 0 1.582.724 1.582 1.617 0 .892-.708 1.617-1.582 1.617H8.918c-.874 0-1.582-.725-1.582-1.617 0-.893.708-1.617 1.582-1.617z"></path>
    </svg></symbol>
  <symbol class="icon-white" xmlns="http://www.w3.org/2000/svg" xmlns:xlink="http://www.w3.org/1999/xlink" xmlnsSvgjs="http://svgjs.com/svgjs" fill="#B7BACD" viewBox="0 0 23 23" id="Icon_4"><svg xmlns="http://www.w3.org/2000/svg" viewBox="1.8 1.8 22.4 22.4" id="Icon_5">
      <path paint-order="stroke fill markers" fill-rule="evenodd" d="M21.4 20h-3.62l-3.79 3.79a1.395 1.395 0 01-1.98 0L8.22 20H4.6a2.8 2.8 0 01-2.8-2.8V4.599a2.8 2.8 0 012.8-2.8h16.8a2.8 2.8 0 012.8 2.8v12.6a2.8 2.8 0 01-2.8 2.8zm0-14A1.4 1.4 0 0020 4.598H6a1.4 1.4 0 00-1.4 1.4v9.8A1.4 1.4 0 006 17.2h2.8a1.4 1.4 0 01.99.41L13 20.82l3.21-3.21c.253-.253.603-.41.99-.41H20a1.4 1.4 0 001.4-1.4V6zm-4.2 8.4H8.8a1.4 1.4 0 110-2.8h8.4a1.4 1.4 0 010 2.8zm0-4.201H8.8a1.4 1.4 0 110-2.8h8.4a1.4 1.4 0 010 2.8z"></path>
    </svg></symbol>
</svg>