<svg width="0" height="0" class="hidden">
  <symbol viewBox="0 0 512 512" xmlns="http://www.w3.org/2000/svg" id="eye-mask">
    <path d="M440.925 250.832c-18.917 32.854-48.839 40.494-72.486 26.879s-32.063-43.329-13.146-76.183c18.916-32.854 71.418-48.683 81.649-42.793 10.23 5.89 22.899 59.242 3.983 92.097z" fill="#ccf3e2"></path>
    <path d="M437.901 154.312c-1.122-.646-2.81-1-4.918-1.086 6.542 11.055 14.646 31.357 2.602 52.276-13.902 24.146-35.894 29.76-53.273 19.754-15.723-9.053-22.281-27.791-13.094-49.16a56.418 56.418 0 0 0-3.795 5.722c-17.423 30.26-12.396 69.536 9.384 82.076s49.34 5.504 66.763-24.757c17.423-30.26 5.754-79.4-3.669-84.825z" fill="#b1b6e1"></path>
    <path d="M72.079 247.668c17.005 33.441 46.183 42.529 70.252 30.289 24.069-12.239 33.913-41.171 16.909-74.611-17.005-33.441-68.075-51.783-78.488-46.487-10.414 5.295-25.677 57.368-8.673 90.809z" fill="#ccf3e2"></path>
    <path d="M150.286 196.232c-15.374-30.233-61.546-46.816-70.96-42.029-1.055.536-2.165 1.607-3.282 3.122 12.454.303 31.191 1.841 42.109 23.311 12.474 24.532 5.253 45.756-12.404 54.734-16.119 8.197-35.357 3.346-48.078-16.224.728 1.956 12.877 15.312 13.815 17.156 15.374 30.233 41.753 38.449 63.513 27.385 21.76-11.065 30.66-37.222 15.287-67.455z" fill="#b1b6e1"></path>
    <path d="M457.75 347.816c0-62.79-50.902-113.692-113.692-113.692H166.646c-62.79 0-113.692 50.901-113.692 113.692h.002l-.002.195c0 62.898 40.99 104.016 88.933 104.016s66.41-20.444 83.522-50.236c6.627-11.537 18.289-17.258 29.942-17.21 11.652-.049 23.315 5.673 29.942 17.21 17.113 29.792 35.58 50.236 83.523 50.236 47.944 0 88.933-41.118 88.933-104.016l-.002-.195zm-293.805 32.983c-29.327 0-46.063-13.315-46.063-36.096s16.736-36.521 46.063-36.521 46.433 14.136 46.433 36.917-17.105 35.7-46.433 35.7zm180.397 0c-29.327 0-46.337-13.315-46.337-36.096s17.01-35.304 46.337-35.304 45.753 12.524 45.753 35.304c0 22.781-16.426 36.096-45.753 36.096z" fill="#faf1a9"></path>
    <path d="M457.75 347.816c0-56.336-40.978-103.094-94.753-112.113 35.952 15.67 61.088 51.517 61.088 93.24h-.002l.002.174c0 56.247-36.656 93.018-79.53 93.018s-59.388-18.283-74.691-44.924c-5.927-10.317-16.355-15.434-26.776-15.39-10.421-.043-20.85 5.073-26.776 15.39-15.303 26.642-31.818 44.924-74.691 44.924-42.875 0-79.53-36.771-79.53-93.018l.002-.174h-.003c0-16.139 3.766-31.395 10.458-44.949-12.365 18.196-19.594 40.164-19.594 63.822v.001h.003c0 .065-.003.129-.003.195 0 62.898 40.99 104.016 88.933 104.016s66.41-20.444 83.523-50.236c6.627-11.537 18.289-17.258 29.942-17.21 11.653-.048 23.315 5.673 29.942 17.21 17.113 29.792 35.58 50.236 83.523 50.236 47.944 0 88.934-41.118 88.934-104.016l-.002-.195z" fill="#dfb5a7"></path>
    <path d="M289.641 232.649c.068-.484.114-.976.114-1.482 3.343-18.754 1.163-36.085-9.082-51.341 4.168-20.894 2.137-38.294-8.978-50.754-1.696-24.459-6.727-51.247-14.092-79.666-.761-4.3-6.932-4.296-7.687.005-6.562 22.738-11.288 44.159-10.856 61.877-8.529 12.502-11.598 26.297-7.344 41.859-7.495 12.889-10.799 27.246-7.676 43.753-9.887 13.11-7.714 27.505-7.252 34.2 2.923 22.768 69.844 23.044 72.853 1.549z" fill="#a1e8c3"></path>
    <path d="M361.244 275.042l-23.121-16.999c-14.255-10.48-23.995-25.768-28.392-42.905a51.947 51.947 0 0 0-6.022-14.202c-13.286-21.737-40.939-30.545-64.339-20.475-27.91 12.011-39.282 44.904-25.506 71.359 11.86 22.777 33.776 34.156 55.032 35.829 21.256 1.671 92.348-12.607 92.348-12.607z" fill="#ccf3e2"></path>
    <path d="M338.123 258.043c-14.255-10.48-23.995-25.768-28.393-42.906a51.947 51.947 0 0 0-6.022-14.202c-7.9-12.925-20.88-21.278-35.025-23.81 10.449 4.297 22.234 13.245 25.337 24.757a37.433 37.433 0 0 1 1.283 10.985c-.412 12.555.389 24.82 8.187 34.668 4.907 6.197-.008 15.258-7.878 14.509-16.273-1.55-37.536-4.042-45.978-7.081-14.486-5.215-27.581-17.316-31.501-35.44-2.206-10.2-.002-20.322 5.318-28.399-15.775 15.504-20.335 40.059-9.589 60.697 11.86 22.777 33.776 34.156 55.032 35.828 21.257 1.672 92.349-12.606 92.349-12.606z" fill="#b1b6e1"></path>
    <ellipse cx="44.222" cy="40.788" fill="#a2e9c4" rx="7.776" ry="7.775" transform="rotate(-80.8 44.214 40.793)"></ellipse>
    <path d="M150.747 17.542l8.255 23.212c.353.994 1.053 1.781 1.936 2.179l20.622 9.291c2.913 1.313 2.913 5.955 0 7.267l-20.622 9.291c-.883.398-1.583 1.185-1.936 2.179l-8.255 23.211c-1.166 3.279-5.29 3.279-6.457 0l-8.255-23.211c-.353-.994-1.053-1.781-1.936-2.179l-20.622-9.291c-2.914-1.313-2.914-5.955 0-7.267l20.622-9.291c.883-.398 1.583-1.185 1.936-2.179l8.255-23.212c1.167-3.279 5.291-3.279 6.457 0zm286.478-3.267l6.123 17.218c.262.737.781 1.321 1.436 1.616l15.297 6.892c2.161.974 2.161 4.417 0 5.391l-15.297 6.892c-.655.295-1.174.879-1.436 1.616l-6.123 17.218c-.865 2.433-3.924 2.433-4.789 0L426.313 53.9c-.262-.737-.781-1.321-1.436-1.616l-15.297-6.892c-2.161-.974-2.161-4.417 0-5.391l15.297-6.892c.655-.295 1.174-.879 1.436-1.616l6.123-17.218c.865-2.433 3.924-2.433 4.789 0z" fill="#cdf4e3"></path>
    <ellipse cx="353.31" cy="84.745" fill="#a2e9c4" rx="14.266" ry="14.266" transform="rotate(-83 353.086 84.737)"></ellipse>
    <path d="M163.945 386.893c-28.994 0-52.581-18.926-52.581-42.191 0-23.264 23.588-42.19 52.581-42.19s52.581 18.926 52.581 42.19c.001 23.265-23.587 42.191-52.581 42.191zm0-72.321c-22.344 0-40.522 13.517-40.522 30.131s18.178 30.131 40.522 30.131 40.522-13.517 40.522-30.131c.001-16.614-18.177-30.131-40.522-30.131zm180.397 72.251c-28.943 0-52.49-18.895-52.49-42.12s23.547-42.12 52.49-42.12c28.944 0 52.491 18.895 52.491 42.12s-23.547 42.12-52.491 42.12zm0-72.181c-22.294 0-40.431 13.485-40.431 30.061s18.137 30.061 40.431 30.061 40.432-13.485 40.432-30.061-18.138-30.061-40.432-30.061z" fill="#3c122c"></path>
    <path d="M91.949 329.074c-1.225 0-2.469-.225-3.677-.701-5.165-2.033-7.704-7.867-5.671-13.032a103.556 103.556 0 0 1 3.843-8.594c2.496-4.957 8.541-6.95 13.495-4.454 4.957 2.497 6.951 8.539 4.455 13.496a82.85 82.85 0 0 0-3.089 6.913 10.058 10.058 0 0 1-9.356 6.372zm21.342-31.262a10.021 10.021 0 0 1-7.436-3.287c-3.735-4.105-3.435-10.461.67-14.196 10.196-9.276 23.612-15.895 38.799-19.142 5.431-1.164 10.767 2.298 11.929 7.726 1.16 5.427-2.298 10.768-7.726 11.928-11.547 2.469-22.014 7.567-29.476 14.355a10.014 10.014 0 0 1-6.76 2.616zm123.382-60.486c-5.55 0-10.049-4.499-10.049-10.049 0-16.071 7.35-25.107 8.188-26.085 0 0 5.632-6.694 13.534-1.255 7.175 4.939 1.724 14.337 1.724 14.337s.056-.059.151-.183c-.142.185-3.499 4.622-3.499 13.185 0 5.551-4.5 10.05-10.049 10.05z" fill="#fff"></path>
    <path d="M487.568 436.04c.595-.539 4.463-3.646 5.157-4.219 12.25-9.954 19.275-24.716 19.275-40.5 0-26.154-19.343-47.871-44.474-51.61-1.718-26.435-11.77-50.632-27.554-69.984 3.49-4.154 6.725-8.785 9.661-13.883 12.591-21.868 11.804-48.43 10.214-62.318-.68-5.935-4.736-35.928-17.892-43.503s-41.131 3.975-46.606 6.367c-12.808 5.597-36.176 18.252-48.767 40.12-5.303 9.21-8.744 18.518-10.423 27.563h-17.066a75.027 75.027 0 0 1-3.524-10.436 57.99 57.99 0 0 0-6.717-15.849 56.957 56.957 0 0 0-15.905-16.936 70.199 70.199 0 0 0-1.699-3.067c3.628-21.869.352-39.556-9.778-52.664-1.837-22.952-6.444-48.495-14.068-77.959-1.38-6.521-6.92-11.03-13.642-11.03h-.01c-6.665.004-12.164 4.44-13.599 10.869-7.591 26.369-11.086 45.509-11.167 61.359-8.42 13.607-11.073 28.159-7.927 43.351-6.842 13.25-9.407 27.27-7.676 41.792a57.904 57.904 0 0 0-8.039 15.089 57.542 57.542 0 0 0-3.186 15.48h-25.38c-1.406-8.289-4.255-16.781-8.579-25.284-11.333-22.285-33.796-36.006-46.178-42.201-5.295-2.65-32.388-15.522-45.825-8.689-13.434 6.832-18.995 36.308-19.973 42.147-2.287 13.655-4.432 39.89 6.899 62.174 2.825 5.556 6.02 10.598 9.531 15.106-17.554 20.434-27.822 45.712-29.494 72.607C18.673 344.225 0 365.627 0 391.322c0 15.785 7.332 30.182 19.277 40.5 11.182 9.659 17.567 23.331 8.979 36.031-4.082 7.693-19.633 22.012-7.727 29.874 11.859 7.892 18.999-12 24.486-18.778 14.134-21.031 6.013-47.038-13.064-62.726-7.496-6.164-11.852-15.196-11.852-24.901 0-14.658 9.885-27.043 23.336-30.862 2.317 27.197 12.237 51.66 28.52 69.849 18.338 20.486 43.174 31.768 69.932 31.768 50.366 0 72.633-21.152 92.236-55.28 4.38-7.624 12.254-12.167 21.162-12.167h.109c8.876-.078 16.789 4.511 21.186 12.166 19.603 34.128 41.871 55.28 92.237 55.28 26.758 0 51.594-11.282 69.932-31.768 16.35-18.263 26.286-42.851 28.551-70.181 14.093 3.381 24.602 16.079 24.602 31.194a31.96 31.96 0 0 1-11.85 24.901c-30.369 23.074-23.651 51.656-2.505 78.674 7.345 10.931 23.954-.122 16.757-11.096-10.506-15.281-23.597-31.329-6.736-47.76zM364.001 206.541c9.271-16.102 27.339-26.198 37.285-30.783 13.356-6.157 24.379-8.219 29.239-8.219.504 0 .942.022 1.31.064 2.35 3.156 6.762 14.355 8.285 30.514 1.027 10.903 1.367 31.598-7.904 47.7-1.952 3.39-4.05 6.496-6.273 9.313-18.914-16.729-42.962-27.778-69.452-30.433 1.468-5.869 3.947-11.967 7.51-18.156zm-60.112 10.095c4.838 18.854 15.728 35.285 30.662 46.265l11.993 8.818c-21.481 3.991-62.483 11.073-77.177 9.919-21.664-1.705-40.415-13.893-50.157-32.602-5.839-11.213-6.753-24.477-2.509-36.393 4.302-12.08 13.2-21.542 25.052-26.643a44.976 44.976 0 0 1 17.809-3.663c15.484 0 30.542 7.903 39.001 21.744a45.89 45.89 0 0 1 5.326 12.555zm-54.801-104.857c.01-.202.018-.403.016-.604 0-.044.005-.088.003-.132-.267-10.914 1.747-23.607 4.406-35.528 3.406 15.685 5.78 30.085 7.198 43.499l-11.632-6.948c.008-.095.004-.192.009-.287zm-5.252 11.201l19.494 11.645c.03.045.656.903.88 1.153 7.076 7.944 9.659 19.215 7.854 34.286l-30.368-18.009a9.888 9.888 0 0 0-.136-.879c-.043-.212-.083-.425-.139-.634l-.01-.044c-2.649-9.689-1.86-18.749 2.425-27.518zm6.288 48.093a56.806 56.806 0 0 0-13.138 3.848 60.123 60.123 0 0 0-3.343 1.576c.736-4.355 2.038-8.631 3.955-12.852zm-164.738-5.101c9.644-.848 50.785 14.181 64.896 41.929 2.873 5.65 4.902 11.213 6.112 16.598-25.633 2.089-49.669 11.993-69.326 28.557a76.275 76.275 0 0 1-6.03-9.944c-14.11-27.746-2.036-69.816 4.348-77.14zM447.7 348.011c0 53.57-33.912 93.967-78.883 93.967-41.296 0-57.592-15.219-74.81-45.192-8.011-13.946-22.391-22.254-38.419-22.254h-.39c-16.109 0-30.492 8.309-38.503 22.254-17.217 29.973-33.514 45.192-74.809 45.192-44.971 0-78.883-40.397-78.883-93.93v-.305c.04-57.115 46.518-103.57 103.643-103.57h37.695a57.3 57.3 0 0 0 4.173 10.43c11.676 22.422 34.071 37.022 59.907 39.055 1.276.101 2.713.148 4.29.148 25.414 0 86.954-12.298 89.72-12.854a6.03 6.03 0 0 0 2.384-10.769l-23.121-16.999c-3.594-2.642-6.902-5.673-9.909-9.011h12.272c57.149 0 103.643 46.494 103.643 103.643h-.002z" fill="#3c122c"></path>
  </symbol>
  <symbol viewBox="0 0 512 512" xmlns="http://www.w3.org/2000/svg" id="unicorn (1)">
    <path d="M406.015 501.777s36.508-17.13 40.927-48.356c4.419-31.227-20.283-48.259-20.283-48.259s49.989-16.002 44.899-85.3c-5.089-69.298-51.408-80.502-51.408-80.502s18.91-92.243-72.81-54.281c0 0 23.091-124.26-65.125-83.75l-23.807 222.256z" fill="#96b4eb"></path>
    <path d="M424.883 404.881s53.895-15.528 49.497-88.09c-.791-13.05-10.842-31.666-14.003-41.124 3.732 103.591-71.995 139.532-138.095 73.834-3.547-3.526-19.914 30.986-24.627 29.582L401.243 505.38s39.445-17.031 44.667-49.567c5.222-32.535-21.027-50.932-21.027-50.932z" fill="#8286ea"></path>
    <path d="M403.637 501.677c-15.09-40.636-38.909-72.395-66.509-93.19l-.01.238c11.182-15.845 19.902-33.881 28.023-62.632l17.212-56.905c5.782-20.471 4.937-41.245-1.254-60.035 6.29-3.592 12.316-9.13 17.627-16.782 16.173-23.305 10.087-63.884 2.83-68.92-7.257-5.037-47.4 3.459-63.574 26.764a71.099 71.099 0 0 0-1.81 2.758 102.923 102.923 0 0 0-24.821-10.682l-61.064-17.247a90.898 90.898 0 0 0-13.429-2.728c.96-5.788.929-12.269-.305-19.354-4.816-27.656-37.316-51.997-45.928-50.497s-30.971 35.393-26.155 63.049c1.593 9.15 4.733 16.676 8.932 22.539-14.198 9.155-25.094 20.489-31.575 29.49-15.641 21.723-29.366 53.491-29.366 53.491-30.187 15.714-46.45 44.288-44.454 73.7 1.647 24.268 12.621 44.82 30.303 61.266 15.542 14.455 44.091 26.126 60.639 29.284l2.54 1.224c-9.684 32.151-15.882 73.6-15.837 95.167" fill="#fff"></path>
    <path d="M337.23 408.565c11.128-15.806 19.818-33.817 27.911-62.471l17.212-56.905c5.782-20.471 4.936-41.245-1.254-60.035 6.29-3.592 12.316-9.13 17.627-16.782 16.174-23.305 10.087-63.884 2.83-68.92-3.348-2.323-13.697-1.76-25.46 1.802 4.731 7.936 3.975 44.322-11.943 64.813-5.494 7.072-11.327 12.087-17.138 15.227 2.878 18.274.953 38.196-6.573 57.513l-21.891 53.645c-7.023 18.027-13.67 31.513-20.723 42.828-5.773 9.261-5.392 21.073 1.11 29.837 8.891 11.983 16.568 26.172 22.615 42.331 6.333 16.923-6.736 34.792-24.777 33.79l-149.833-3.337c-1.09 9.565-1.303 13.132-1.289 19.776h257.984c-15.072-40.587-38.852-72.316-66.408-93.112z" fill="#e1bdfc"></path>
    <path d="M293.351 276.932l-22.684 15.356c15.189 28.441 60.38 66.813 61.46 108.504.85 16.494 26.095-8.378 32.627-46.285-12.233-36.141-57.941-62.564-71.403-77.575zM130.8 259.588l16.947 19.8c-28.833 18.21-48.507 46.157-63.737 84.982l-16.402-46.557c23.823-29.805 45.42-48.702 63.192-58.225z" fill="#c1e5ef"></path>
    <path d="M297.979 188.766c.097-.448.174-.904.209-1.377 4.415-17.294 3.57-33.639-4.953-48.599 5.333-19.237 4.633-35.635-4.896-48.043.099-22.972-2.759-48.35-7.685-75.412-.415-4.07-6.182-4.491-7.183-.524-7.697 20.796-13.587 40.486-14.402 57.072-8.831 11.095-12.647 23.774-9.743 38.609-7.891 11.528-11.966 24.716-10.184 40.355-10.141 11.57-9.101 25.17-9.131 31.459 1.163 21.475 63.677 26.339 67.968 6.46z" fill="#f6e06e"></path>
    <path d="M297.979 188.766c.097-.448.174-.904.209-1.377 3.135-12.282 3.599-24.082.563-35.25a71.066 71.066 0 0 1-1.815 10.037 8.341 8.341 0 0 1-.173 1.177c-3.622 16.972-58.553 12.354-59.731-6.024-.004-1.038-.044-2.312-.044-3.758-7.824 10.912-6.949 22.934-6.976 28.735 1.162 21.475 63.676 26.339 67.967 6.46z" fill="#dda86a"></path>
    <path d="M144.03 163.484c16-3.877 29.851-13.502 39.781-26.633a48.336 48.336 0 0 1 10.27-10.029c19.211-13.888 46.111-11.518 62.582 5.531 19.644 20.334 17.593 52.653-3.733 70.415-18.361 15.292-41.26 17.189-60.107 10.991-10.98-3.611-34.534-17.943-52.285-29.279-8.594-5.487-6.417-18.595 3.492-20.996z" fill="#96b4eb"></path>
    <path d="M256.662 132.353c-16.47-17.048-43.371-19.418-62.582-5.531a48.354 48.354 0 0 0-10.269 10.029c-9.93 13.131-23.781 22.756-39.781 26.633-9.909 2.401-12.086 15.508-3.493 20.996 17.751 11.336 41.305 25.668 52.285 29.28 18.848 6.198 41.746 4.301 60.107-10.991 21.326-17.762 23.377-50.081 3.733-70.416zm-10.739 44.386c-10.843 13.367-26.944 17.751-41.361 15.809-8.399-1.131-27.405-8.269-41.809-14.031-6.973-2.789-7.382-12.453-.652-15.481 10.867-4.889 19.334-13.605 24.468-24.311a34.027 34.027 0 0 1 5.843-8.532c11.662-12.474 31.268-14.336 45.612-4.318 17.11 11.948 20.493 35.339 7.899 50.864z" fill="#8286ea"></path>
    <path d="M201.543 164.903c-2.474 0-4.955-.893-6.919-2.701-4.153-3.823-4.421-10.288-.598-14.441 14.073-15.29 30.031-15.525 31.823-15.498 0 0 9.854-.717 10.525 9.352.671 10.068-10.619 11.087-10.619 11.087-.355.008-8.782.31-16.69 8.902a10.19 10.19 0 0 1-7.522 3.299z" fill="#fff"></path>
    <path d="M172.894 339.522c-5.861.016-10.094-9.085-8.359-18.04 4.252-21.935 16.149-37.729 30.203-37.767s26.036 15.692 30.406 37.604c1.784 8.946-2.4 18.069-8.261 18.085z" fill="#d789b9"></path>
    <path d="M212.984 293.574c-5.189-6.229-11.476-9.878-18.246-9.859-14.054.038-25.952 15.832-30.203 37.767-1.736 8.955 2.498 18.056 8.359 18.04l13.713-.037c.02-.135.044-.27.073-.403-3.192-1.474-5.225-6.934-4.178-12.333 3.001-15.481 11.397-26.628 21.316-26.655 3.965-.011 7.694 1.761 10.942 4.874-.498-3.853-1.029-7.676-1.776-11.394z" fill="#c668b9"></path>
    <path d="M83.268 161.434c-3.245-2.645-6.267-5.992-8.817-9.935-9.246-14.294-8.795-31.022 1.007-37.362s25.243.108 34.489 14.403c2.311 3.574 4.017 7.299 5.122 10.977m-50.096 70.517c-2.583-.105-5.315-.639-8.035-1.643-9.861-3.638-15.833-12.068-13.338-18.83 2.494-6.762 12.51-9.295 22.372-5.657 2.465.91 4.688 2.118 6.595 3.526" fill="#c1e5ef"></path>
    <path d="M446.834 2.501l8.396 23.606c.359 1.011 1.071 1.812 1.969 2.216l20.973 9.449c2.963 1.335 2.963 6.056 0 7.391l-20.973 9.449c-.898.405-1.61 1.205-1.969 2.216l-8.396 23.606c-1.186 3.335-5.38 3.335-6.567 0l-8.395-23.606c-.359-1.011-1.071-1.812-1.969-2.216l-20.973-9.449c-2.963-1.335-2.963-6.056 0-7.391l20.973-9.449c.898-.405 1.61-1.205 1.969-2.216l8.395-23.606c1.187-3.335 5.381-3.335 6.567 0zM30.34 14.492l6.227 17.511c.267.75.795 1.344 1.461 1.644l15.558 7.009c2.198.99 2.198 4.492 0 5.482l-15.558 7.009c-.666.3-1.194.894-1.461 1.644L30.34 72.302c-.88 2.474-3.991 2.474-4.871 0l-6.227-17.511c-.267-.75-.794-1.344-1.461-1.644L2.223 46.138c-2.198-.99-2.198-4.492 0-5.482l15.558-7.009c.666-.3 1.194-.894 1.461-1.644l6.227-17.511c.88-2.474 3.991-2.474 4.871 0z" fill="#fbf2aa"></path>
    <g fill="#f7e16e">
      <ellipse cx="146.002" cy="47.215" rx="12.456" ry="12.456" transform="rotate(-5.73 145.265 47.155)"></ellipse>
      <path d="M511.425 123.279c0 5.343-4.331 9.674-9.674 9.674s-9.674-4.331-9.674-9.674 4.331-9.674 9.674-9.674 9.674 4.331 9.674 9.674z"></path>
    </g>
    <g fill="#3c122c">
      <path d="M177.666 345.641c-4.874 0-9.394-2.525-12.731-7.114-5.404-7.431-6.906-18.933-3.737-28.622 6.604-20.201 19.137-32.284 33.524-32.322h.069c14.358 0 26.926 12.009 33.628 32.141 3.22 9.671 1.78 21.181-3.583 28.641-3.321 4.619-7.842 7.17-12.73 7.183l-34.401.092a.508.508 0 0 1-.039.001zm17.122-55.794h-.034c-8.702.023-17.094 9.169-21.9 23.869-2.199 6.724-.659 13.942 1.999 17.597.452.621 1.628 2.063 2.813 2.063h.004l34.401-.092c1.186-.003 2.357-1.454 2.806-2.078 2.638-3.669 4.14-10.896 1.905-17.608-4.878-14.655-13.303-23.751-21.994-23.751zm-39.614-24.079a6.134 6.134 0 0 1-2.316-11.812c4.335-1.778 9.03-4.727 10.395-6.459-.938-1.83-4.579-5.374-8.085-7.791a6.135 6.135 0 0 1-1.575-8.525 6.128 6.128 0 0 1 8.518-1.584c4.869 3.339 15.897 12.078 13.152 21.073-2.393 7.843-14.213 13.192-17.778 14.645a6.138 6.138 0 0 1-2.311.453zm8.279-17.769h.01zm109.1 31.042a6.094 6.094 0 0 1-3.261-.945c-3.696-2.331-15.591-10.709-13.485-20.681 2.019-9.552 15.62-14.437 18.327-15.319a6.132 6.132 0 0 1 3.801 11.66c-4.8 1.585-9.435 4.602-10.086 6.084.377 1.673 4.243 5.503 7.994 7.888a6.136 6.136 0 0 1-3.29 11.313z"></path>
      <path d="M458.476 395.485c12.218-13.044 26.176-36.883 23.276-76.372-4.229-57.561-34.867-79.103-50.356-86.377 1.285-12.98 1.46-37.5-12.371-53.168.185-3.335.19-6.331.116-8.81-.196-6.597-1.624-28.668-11.759-35.702-10.136-7.033-31.312-.651-37.561 1.474a104.447 104.447 0 0 0-9.915 3.957c-1.478-18.598-6.759-38.104-20.815-49.058-10.573-8.24-24.174-10.443-40.582-6.631-.338-20.877-2.879-44.182-7.753-71.021a13.854 13.854 0 0 0-12.733-11.912 13.832 13.832 0 0 0-14.271 9.754c-8.884 24.056-13.476 41.703-14.679 56.532-6.96 9.655-10.591 20.112-10.894 31.225-5.244-8.787-11.635-15.715-16.114-19.989-4.735-4.517-21.126-19.098-33.196-16.99-12.078 2.103-22.571 21.359-25.5 27.21-4.785 9.562-12.313 28.467-8.971 47.66.872 5.007 2.188 9.677 3.889 14.02-4.96 2.796-10.238 4.911-15.704 6.235-7.01 1.698-12.102 7.172-13.288 14.284-.74 4.438.165 8.766 2.424 12.337-12.532 18.124-23.364 41.108-27.19 49.565-31.139 17.602-48.966 48.605-46.719 81.72 1.772 26.108 13.056 49.005 33.539 68.057 15.365 14.291 40.357 25.088 57.57 29.899-8.548 32.028-13.527 68.811-13.486 88.315.012 5.637 4.585 10.199 10.22 10.199h.022c5.645-.012 10.211-4.597 10.199-10.242-.042-20.044 5.707-60.011 15.402-92.199 2.303-7.123-3.894-12.852-10.411-14.211-14.166-2.703-41.367-13.496-55.594-26.729a97.972 97.972 0 0 1-8.604-9.066c17.328-52.205 54.004-75.132 54.441-75.4a6.132 6.132 0 0 0-6.354-10.49c-1.598.966-36.987 22.844-56.678 73.504-5.757-10.158-9.07-21.194-9.872-33.022-.033-.49-.049-.977-.07-1.466 19.647-32.456 57.055-43.703 57.442-43.815a6.132 6.132 0 0 0-3.412-11.779c-1.422.411-27.947 8.306-49.796 30.413 6.029-15.329 18.15-28.621 34.813-37.295a10.224 10.224 0 0 0 4.662-5.01c.127-.294 12.271-28.221 26.217-48.625 20.49 12.727 34.891 20.503 42.847 23.119 7.373 2.425 14.906 3.613 22.339 3.613 15.835-.001 31.213-5.394 43.608-15.718.33-.275.643-.566.966-.848 1.71.243 3.412.439 5.083.571 2.111.168 4.281.258 6.473.258 15.251-.001 31.452-4.351 34.499-17.007.018-.061.031-.122.046-.183.016-.071.038-.139.053-.211l.002-.012c.012-.054.019-.103.03-.157l.02-.105c.094-.469.17-.913.22-1.34 1.446-5.778 2.301-11.387 2.569-16.814l1.757.496a92.918 92.918 0 0 1 22.36 9.621c4.769 2.85 10.945 1.364 13.897-3.345a59.249 59.249 0 0 1 1.549-2.361c11.809-17.017 40.185-24.536 49.086-23.816 3.79 8.08 6.674 37.3-5.135 54.318-4.248 6.121-9.06 10.741-14.3 13.734a10.222 10.222 0 0 0-4.639 12.074c5.766 17.498 6.163 36.158 1.152 53.969l-14.004 46.301c-22.961-36.861-59.522-58.017-61.28-59.019a6.132 6.132 0 1 0-6.074 10.654c.438.25 42.22 24.42 62.472 64.698-5.023 16.709-10.475 29.997-17.213 41.8-12.894-46.121-60.223-101.74-62.469-104.36a6.132 6.132 0 0 0-9.312 7.981c.584.682 57.849 67.985 62.446 112.145-.099.503-.17 1.016-.191 1.538l-.01.239a10.22 10.22 0 0 0 5.711 9.603c26.647 20.633 47.866 50.784 61.437 87.333a10.226 10.226 0 0 0 9.582 6.666c.264 0 .53-.014.795-.035.524.083 1.054.135 1.589.135 1.453 0 2.931-.312 4.335-.971 1.695-.795 41.57-19.895 46.705-56.177 3.051-21.56-5.363-37.416-13.173-47.073a80.488 80.488 0 0 0 14.588-12.295zM269.202 73.128c.025-.202.048-.404.061-.606.003-.046.011-.09.014-.137.444-9.034 2.667-19.27 5.472-29.106 1.728 12.953 2.782 24.938 3.184 36.137l-8.746-6.139c.007-.049.009-.1.015-.149zm-6.064 10.888l16.038 11.257c.02.039.044.076.063.115.082.159.169.314.258.469.078.134.155.267.24.398.102.159.211.312.321.465.06.083.111.17.173.251 5.162 6.721 5.848 15.36 2.152 29.092l-22.857-15.934a10.202 10.202 0 0 0-.173-1.601c-1.757-8.982-.549-16.914 3.785-24.512zm-70.679-1.012c6.453 2.423 21.302 14.154 29.244 28.683-10.926.08-21.876 3.414-31.215 10.166a54.541 54.541 0 0 0-11.569 11.3 69.786 69.786 0 0 1-3.583 4.358 56.394 56.394 0 0 1-.798-3.748c-3.495-20.074 11.161-45.021 17.921-50.759zm2.278 124.93c-8.084-2.659-26.161-12.824-50.9-28.622-2.816-1.798-2.581-4.652-2.443-5.485.139-.83.842-3.599 4.08-4.383 16.88-4.09 32.232-14.351 43.228-28.894a42.287 42.287 0 0 1 8.971-8.758c7.312-5.285 15.899-7.87 24.451-7.87 11.047 0 22.035 4.315 30.128 12.692 8.24 8.53 12.428 19.708 11.79 31.476-.629 11.608-6.11 22.53-15.038 29.966-14.943 12.446-35.23 16.138-54.267 9.878zm72.978-12.76a54.551 54.551 0 0 0 6.527-14.41l15.31 9.867c-3.831 2.78-11.783 4.794-21.837 4.543zm26.024-16.436l-17.415-11.224c.472-14.753-4.906-28.712-15.251-39.422a53.294 53.294 0 0 0-9.339-7.69c.263-.066.53-.127.784-.21l36.355 25.345c.396.277.818.482 1.249.653 4.41 9.745 5.603 20.484 3.617 32.548zm39.45-18.994a113.5 113.5 0 0 0-19.061-7.286l-9.698-2.739a62.67 62.67 0 0 0-4.468-11.355c.181-.392.345-.794.478-1.216 3.091-9.812 5.808-21.382 4.229-32.796 9.326-1.905 16.648-.854 21.849 3.192 10.442 8.127 13.28 27.769 13.278 45.622a63.48 63.48 0 0 0-6.607 6.578zm90.354 235.684c-3.711 1.188-6.452 4.364-7.022 8.218-.57 3.855 1.073 7.679 4.281 9.891.797.566 19.464 14.126 16.022 38.452-2.457 17.359-17.99 29.933-27.575 36.152-13.884-33.104-33.817-61.061-58.331-81.726 9.924-15.918 17.315-33.685 24.033-57.452l17.185-56.816c.019-.06.036-.12.053-.181 5.44-19.257 5.694-39.337.801-58.533 5.186-4.062 9.92-9.161 14.135-15.235a56.792 56.792 0 0 0 3.845-6.429c1.314 10.013.207 20.387-.829 25.538-1.106 5.393 2.168 10.67 7.519 11.964 1.602.419 39.274 10.961 43.71 71.339 4.396 59.918-36.166 74.259-37.827 74.818zM83.265 167.566a6.105 6.105 0 0 1-3.871-1.379c-3.855-3.142-7.25-6.964-10.092-11.357-11.255-17.401-10.014-37.537 2.826-45.841 6.397-4.136 14.833-4.518 23.147-1.046 7.645 3.192 14.685 9.325 19.822 17.267 2.575 3.981 4.541 8.201 5.846 12.544a6.133 6.133 0 0 1-11.747 3.527c-.971-3.235-2.451-6.401-4.398-9.41-3.751-5.799-8.945-10.396-14.25-12.611-2.659-1.111-7.724-2.584-11.759.027-6.829 4.417-6.458 17.644.812 28.882 2.145 3.317 4.683 6.181 7.543 8.513a6.131 6.131 0 0 1-3.879 10.884zm-18.287 48.6a7.22 7.22 0 0 1-.254-.005c-3.313-.135-6.646-.814-9.907-2.017-5.919-2.183-10.956-5.895-14.184-10.452-3.669-5.18-4.684-11.105-2.785-16.254s6.518-8.995 12.673-10.551c5.414-1.368 11.655-.919 17.574 1.264a32.706 32.706 0 0 1 8.113 4.344 6.132 6.132 0 0 1-7.28 9.87 20.443 20.443 0 0 0-5.077-2.707c-3.567-1.316-7.33-1.637-10.323-.88-1.028.26-3.494 1.063-4.173 2.905-.68 1.842.673 4.055 1.287 4.921 1.785 2.519 4.854 4.719 8.421 6.034 2.058.76 4.131 1.186 6.163 1.269a6.133 6.133 0 0 1-.248 12.259z"></path>
    </g>
  </symbol>
  <symbol viewBox="0 0 512 512" xmlns="http://www.w3.org/2000/svg" id="unicorn">
    <path d="M104.727 501.563S68.658 478.61 68.658 445.82s28.691-46.726 28.691-46.726-50.503-23.755-34.74-94.354 66.457-75.384 66.457-75.384-6.197-97.715 85.179-45.273c0 0-5.827-131.284 81.459-76.73l-8.089 232.271z" fill="#ccf3e2"></path>
    <path d="M98.686 399.67s-43.439-21.933-36.852-66.397c4.941 20.585 45.506 95.688 127.729-10.027 3.055-3.928 33.34 71.777 38.192 71.141L106.064 502.139s-36.069-22.953-36.069-55.743 28.691-46.726 28.691-46.726z" fill="#b1b6e1"></path>
    <path d="M104.697 501.828c11.974-43.585 33.516-89.022 67.692-116.682-6.423-18.198-9.895-37.828-9.895-67.556l-1.091-59.148c0-21.167 6.428-40.832 17.438-57.151-5.052-5.141-9.325-12.074-12.341-20.838-9.185-26.692 7.619-63.904 15.93-66.764s44.456 16.133 53.641 42.825c.363 1.055.684 2.096.987 3.131a102.43 102.43 0 0 1 26.658-3.516h63.141c4.715 0 9.245.359 13.598 1.02.646-5.802 2.428-12 5.526-18.451 12.092-25.181 49.798-39.7 57.639-35.935 7.841 3.766 20.086 42.27 7.994 67.451-4.001 8.332-9.042 14.689-14.65 19.168 11.12 12.607 18.488 26.408 22.26 36.78 9.102 25.032 13.654 59.166 13.654 59.166 24.658 23.212 32.502 54.974 22.636 82.599-8.141 22.794-24.208 39.507-45.589 50.473-18.793 9.639-49.289 13.094-65.99 11.642 9.281 20.417 14.182 49.808 17.475 71.787H104.697z" fill="#fff"></path>
    <path d="M390.836 161.913c4.127 4.492 8.046 9.168 11.923 13.882a352.18 352.18 0 0 1 4.633 2.438c3.51-5.516 6.153-12.324 7.564-20.43 4.792-27.52-5.745-58.796-14.314-60.288-3.822-.666-12.373 3.793-21.099 11.369.627-.057 1.184-.039 1.653.066 7.435 1.655 14.2 28.853 9.64 52.963zm41.172 114.825s-1.337-47.779-16.305-69.829c-8.5 3.499-17.386 6.143-26.312 7.782 10.014 23.257 10.741 67.783 10.741 67.783 24.078 23.325 23.222 44.141 20.316 57.562-4.633 21.394-13.92 36.87-33.847 49.166-14.141 8.726-36.721 9.126-49.674 14.039-10.04 3.808-18.717 9.63-17.971 20.651.665 9.823 1.041 17.347.289 31.268-.698 12.908-11.022 23.853-23.936 23.25l-179.073-.443c-6.69 11.367-6.153 10.485-11.12 23.862h256.715c.045-21.461-3.32-39.957-12.957-71.95l2.528-1.218c16.466-3.142 60.791-11.207 76.256-25.591 17.595-16.365 26.184-33.228 30.254-57.088 3.587-21.033 2.491-41.348-25.904-69.244z" fill="#e1bdfc"></path>
    <path d="M267.393 173.147c.033-.455.087-.912.187-1.373.639-17.749 6.032-33.117 18.367-45.007.307-19.862 5.578-35.321 18.157-44.492 6.353-21.958 16.203-45.384 28.501-69.838 1.538-3.769 7.162-2.553 7.004 1.516 1.512 22.013 1.609 42.465-2.267 58.528 5.316 13.071 5.402 26.246-1.534 39.593 4.298 13.22 4.487 26.954-1.603 41.385 6.435 13.892 1.625 26.583-.112 32.595-7.136 20.175-68.182 7.275-66.7-12.907z" fill="#f6e06e"></path>
    <path d="M267.393 173.147c.033-.455.087-.912.187-1.373.454-12.605 3.323-24 9.356-33.81a70.673 70.673 0 0 0-1.084 10.091 8.118 8.118 0 0 0-.165 1.172c-1.305 17.22 52.432 28.227 58.715 11.012.295-.99.691-2.194 1.097-3.576 4.407 12.613.198 23.845-1.405 29.391-7.137 20.175-68.183 7.275-66.701-12.907z" fill="#dda86a"></path>
    <path d="M421.461 192.216c-14.187-8.192-24.71-21.268-30.504-36.591a48.114 48.114 0 0 0-6.99-12.456c-14.443-18.65-40.79-23.937-61.298-12.283-24.46 13.899-31.572 45.33-16.198 68.272 13.237 19.752 34.566 27.99 54.299 27.362 11.496-.366 38.005-7.438 58.133-13.279 9.744-2.828 11.344-15.952 2.558-21.025z" fill="#ccf3e2"></path>
    <path d="M306.472 199.157c13.237 19.752 34.566 27.99 54.299 27.362 11.496-.366 38.005-7.438 58.133-13.279 9.743-2.827 11.344-15.951 2.557-21.024-14.187-8.192-24.709-21.268-30.504-36.591a48.098 48.098 0 0 0-6.99-12.456c-14.443-18.649-40.79-23.936-61.298-12.283-24.46 13.899-31.571 45.329-16.197 68.271zm35.808-69.226c16.506-5.538 34.7 1.741 42.333 16.923a33.858 33.858 0 0 1 3.184 9.786c1.897 11.662 7.534 22.36 16.537 30.077 5.575 4.779 2.472 13.89-4.967 14.596-15.368 1.459-35.516 2.939-43.852 1.662-14.309-2.192-28.45-10.896-35.05-26.701-7.666-18.357 2.129-39.738 21.815-46.343z" fill="#b1b6e1"></path>
    <path d="M298.772 432.89c12.19-7.936 21.333-31.556 15.339-40.195-5.994-8.64-30.403-5.868-42.355 2.423-11.951 8.291 20.883 41.764 27.016 37.772z" fill="#a1e8c3"></path>
    <path d="M82.082 33.688l8.354 23.49c.358 1.006 1.066 1.803 1.959 2.205l20.87 9.403c2.949 1.328 2.949 6.026 0 7.354l-20.87 9.403c-.893.403-1.602 1.2-1.959 2.205l-8.354 23.49c-1.18 3.319-5.354 3.319-6.534 0l-8.354-23.49c-.358-1.006-1.066-1.803-1.959-2.205l-20.87-9.403c-2.948-1.328-2.948-6.026 0-7.354l20.87-9.403c.894-.403 1.602-1.2 1.959-2.205l8.354-23.49c1.18-3.319 5.354-3.319 6.534 0zM215.089 3.884l6.197 17.425c.265.746.791 1.337 1.453 1.636l15.481 6.975c2.187.985 2.187 4.47 0 5.455l-15.481 6.975c-.663.299-1.188.89-1.453 1.636l-6.197 17.425c-.875 2.462-3.971 2.462-4.847 0l-6.197-17.425c-.265-.746-.791-1.337-1.453-1.636l-15.481-6.975c-2.187-.985-2.187-4.47 0-5.455l15.481-6.975c.663-.299 1.188-.89 1.453-1.636l6.197-17.425c.875-2.462 3.971-2.462 4.847 0z" fill="#fbf2aa"></path>
    <ellipse cx="61.638" cy="186.984" fill="#f7e16e" rx="12.395" ry="12.395" transform="rotate(-82.94 61.65 186.903)"></ellipse>
    <g fill="#3c122c">
      <path d="M442.453 280.457c-1.442-9.571-5.935-36.503-13.669-57.772-.761-2.092-1.639-4.208-2.575-6.331 3.832-2.803 6.377-7.071 6.981-12.056.863-7.123-2.462-13.778-8.677-17.366l-3.051 5.284 3.051-5.284a60.164 60.164 0 0 1-7.606-5.234 75.908 75.908 0 0 0 3.877-7.083c8.391-17.475 6.296-37.616 4.299-48.067-1.222-6.395-6.062-27.673-17.059-32.954-10.999-5.281-30.63 4.246-36.384 7.292-6.188 3.275-15.662 9.164-23.815 17.777a54.004 54.004 0 0 0-4.024.025c-.019-.097-.031-.194-.05-.291.402-.505.776-1.038 1.085-1.632 7.506-14.443 8.543-29.58 3.097-45.04 3.013-14.496 3.583-32.632 1.852-58.09A13.786 13.786 0 0 0 338.898.318a13.785 13.785 0 0 0-15.5 7.799c-12.717 25.314-21.936 47.671-28.134 68.22-4.65 4.047-7.962 8.758-10.313 13.797-18.661-8.118-34.809-8.317-48.146-.533-9.11 5.317-16.381 14.119-21.764 26.288l-.348-.245c-5.409-3.724-23.963-15.563-35.569-11.57-11.609 3.994-18.946 24.744-20.918 31.008-1.877 5.961-4.167 15.211-4.504 25.546a41.471 41.471 0 0 0-9.344 4.302c-20.945 13.031-24.871 41.676-25.46 56.246-5.918 1.739-14.094 4.988-22.892 11.008-14.87 10.176-34.457 30.641-43.322 70.343-8.966 40.156 2.196 66.658 13.138 81.819a83.603 83.603 0 0 0 13.813 14.903c-9.7 8.692-21.146 23.777-21.146 46.573 0 33.651 30.756 57.364 38.871 63.035a10.108 10.108 0 0 0 4.644 2.779 10.17 10.17 0 0 0 2.7.366c4.465 0 8.561-2.964 9.8-7.478 13.542-49.293 36.372-88.88 64.284-111.471a10.172 10.172 0 0 0 3.193-11.29c-6.53-18.5-9.315-37.691-9.315-64.172 0-.063 0-.125-.002-.188l-1.089-59.052c.018-18.412 5.445-36.174 15.699-51.371a10.168 10.168 0 0 0-1.177-12.816c-4.208-4.283-7.566-10.008-9.978-17.019-6.707-19.491 3.958-46.691 9.772-53.405 8.714 1.714 33.859 16.593 40.565 36.08.274.798.542 1.649.843 2.678a10.17 10.17 0 0 0 12.406 6.968 92.327 92.327 0 0 1 22.124-3.135 95.692 95.692 0 0 0-.326 4.754c-.073.426-.126.875-.167 1.345l-.009.099c-.005.057-.012.11-.016.167l-.001.006c-.004.058-.002.114-.006.172-.004.089-.009.177-.009.267-.704 14.775 18.017 24.016 34.411 27.454 1.628.341 3.308.619 5.004.865.232.365.453.736.694 1.097 12.71 18.965 33.973 30.102 57.236 30.101.772 0 1.55-.012 2.326-.037 8.155-.26 23.577-3.499 45.932-9.641a87.147 87.147 0 0 1 2.771 6.658c8.607 23.671 13.086 56.705 13.131 57.036a10.173 10.173 0 0 0 3.11 6.059c21.079 19.843 28.754 47.345 20.03 71.774-6.961 19.491-20.639 34.579-40.653 44.845-17.203 8.824-46.173 11.805-60.467 10.559a10.176 10.176 0 0 0-9.185 4.261 10.167 10.167 0 0 0-.954 10.08c8.314 18.29 13.095 45.186 16.676 69.085.832 5.555 6.013 9.384 11.564 8.551 5.555-.832 9.383-6.01 8.551-11.564-2.962-19.77-6.746-41.578-12.723-59.984 17.264-.816 39.67-4.604 55.822-12.889 24.768-12.704 41.767-31.579 50.525-56.102 11.105-31.106 2.419-65.618-22.643-90.892zm-291.218-21.828l1.089 59.051c.006 25.785 2.505 45.443 8.262 64.153-31.649 28.213-50.394 68.689-61.261 102.434-9.065-8.419-20.497-22.242-20.497-38.447 0-25.775 22.079-37.134 22.965-37.578 3.523-1.711 5.78-5.281 5.755-9.198a10.12 10.12 0 0 0-5.812-9.125c-1.758-.855-42.893-21.644-29.202-82.963 13.829-61.936 55.788-67.286 57.487-67.475 5.456-.515 9.522-5.28 9.195-10.751-.588-9.841 1.125-37.388 15.917-46.553.345-.214.703-.401 1.059-.592.216.727.443 1.453.692 2.177 2.393 6.956 5.548 13.12 9.415 18.412-9.878 17.059-15.065 36.356-15.065 56.268-.001.062 0 .124.001.187zm247.779-146.274c4.891 7.28 12.112 34.832 3.586 53.111a68.729 68.729 0 0 1-5.935-11.999 54.235 54.235 0 0 0-7.873-14.034c-4.79-6.186-10.747-11.056-17.35-14.532 10.413-7.579 22.225-12.097 27.572-12.546zM330.4 40.771c-.081 10.177-.832 20.573-2.943 29.323-.01.044-.015.087-.025.131-.046.2-.08.402-.114.604-.008.048-.02.096-.027.143l-10.072 3.406c3.527-10.579 7.897-21.725 13.181-33.607zm-20.303 49.721l.026-.021c.254-.187.499-.386.736-.596.061-.054.118-.112.177-.167.169-.157.333-.319.491-.487.017-.019.037-.036.055-.054l18.47-6.246c2.005 8.471.932 16.382-3.267 24.463-.251.483-.447.98-.614 1.48l-26.292 8.798c.324-14.146 3.403-22.201 10.218-27.17zm-46.38 55.466a113 113 0 0 0-20.224 1.822c-3.189-6.839-7.584-12.802-12.185-17.804 3.457-10.04 8.492-18.583 15.76-22.817 8.062-4.698 19.094-3.647 32.852 3.044-.408 4.453-.469 8.843-.39 12.975.009.439.054.869.117 1.293-5.838 6.169-10.277 13.354-13.319 21.488h-2.611zm23.127-11.254a6.029 6.029 0 0 0 1.373-.272l41.821-13.994c.22.152.457.284.69.421a53.088 53.088 0 0 0-11.074 4.721c-12.883 7.321-21.933 19.137-25.623 33.355l-19.775 5.827c1.49-12.075 5.642-21.992 12.588-30.058zm-11.928 42.587l17.385-5.123a54.247 54.247 0 0 0 2.187 15.588c-9.669-2.582-16.695-6.735-19.572-10.465zm85.661 43.129c-19.929.639-38.262-8.584-49.035-24.66-6.437-9.604-8.604-21.569-5.946-32.828 2.695-11.413 9.829-20.91 20.089-26.74 6.392-3.632 13.434-5.377 20.422-5.377 12.56 0 24.943 5.638 33.037 16.09a42.024 42.024 0 0 1 6.106 10.878c6.417 16.97 18.194 31.075 33.161 39.717 2.87 1.658 2.764 4.498 2.664 5.329-.101.833-.678 3.624-3.871 4.551-28.054 8.14-48.164 12.771-56.627 13.04z"></path>
      <path d="M271.623 386.386c-18.103 9.486-39.404 26.014-64.069 45.152l-6.948 5.387a6.101 6.101 0 0 0-1.089 8.56 6.101 6.101 0 0 0 8.561 1.089l6.958-5.394c17.644-13.69 33.525-26.004 47.483-35.162l24.617 33.092c-12.729 11.404-28.824 23.844-45.351 36.613l-6.967 5.387a6.102 6.102 0 0 0 7.471 9.65l6.957-5.379c41.158-31.801 73.666-56.919 76.114-79.449.734-6.754-1.202-12.939-5.753-18.381-15.298-18.293-39.9-5.402-47.984-1.165zm41.605 18.227c-.795 7.317-7.267 16.19-17.151 26.071l-23.131-31.094c1.47-.84 2.924-1.65 4.342-2.394 21.249-11.133 28.774-6.819 32.958-1.817 2.406 2.878 3.354 5.811 2.982 9.234zm47.782-147.534a6.104 6.104 0 0 1-2.593-11.629l15.605-7.311a6.102 6.102 0 1 1 5.177 11.051l-15.605 7.311a6.06 6.06 0 0 1-2.584.578zm-67.828-2.22c-.72 0-1.452-.128-2.165-.399l-16.111-6.118a6.103 6.103 0 0 1 4.332-11.41l16.111 6.118a6.103 6.103 0 0 1-2.167 11.809zm94.093 66.942c-5.313-10.509-18.187-14.734-28.695-9.424-19.761 9.991-39.401 9.948-60.047-.133-10.582-5.164-23.396-.758-28.561 9.823a21.216 21.216 0 0 0-1.004 16.315 21.216 21.216 0 0 0 10.826 12.246c16.338 7.977 32.908 12.021 49.249 12.021 16.435 0 32.856-4.089 48.807-12.153 10.51-5.313 14.738-18.185 9.425-28.695zm-63.754 28.468c-5.146-.325-10.323-1.111-15.512-2.338v-18.92c5.206 1.526 10.372 2.49 15.512 2.892zm12.204-18.464c4.969-.477 9.923-1.489 14.875-3.03v18.995a90.614 90.614 0 0 1-14.875 2.408zm-55.216 2.609a9.09 9.09 0 0 1 .43-6.992c1.585-3.247 4.85-5.137 8.24-5.137 1.346 0 2.712.298 4 .927.877.428 1.752.836 2.626 1.233v19.787a116.446 116.446 0 0 1-10.657-4.57 9.095 9.095 0 0 1-4.639-5.248zm91.836 5.192a109.287 109.287 0 0 1-9.541 4.262v-19.971c.427-.208.854-.412 1.282-.628 4.504-2.276 10.021-.465 12.299 4.039 2.276 4.503.464 10.02-4.04 12.298zm5.646-76.96c-13.221 0-23.977 10.756-23.977 23.977 0 2.895 1.245 8.211 9.58 11.279 3.9 1.436 9.013 2.227 14.397 2.227 14.79 0 23.977-5.175 23.977-13.506 0-13.221-10.756-23.977-23.977-23.977zm0 25.279c-.498 0-.978-.011-1.45-.027V274.95c.476-.059.958-.1 1.45-.1 6.195 0 11.288 4.81 11.74 10.892-1.437.9-5.597 2.183-11.74 2.183zm-107.843-25.279c-13.221 0-23.977 10.756-23.977 23.977 0 2.895 1.244 8.211 9.58 11.279 3.9 1.436 9.013 2.227 14.397 2.227 14.79 0 23.977-5.175 23.977-13.506 0-13.221-10.756-23.977-23.977-23.977zm0 25.279c-.489 0-.96-.011-1.424-.026v-12.953c.468-.057.941-.096 1.424-.096 6.195 0 11.288 4.81 11.74 10.892-1.437.9-5.597 2.183-11.74 2.183z"></path>
    </g>
    <path d="M369.029 177.843a10.17 10.17 0 0 1-9.129-5.675c-5.139-10.422-13.099-13.075-13.436-13.183 0 0-10.653-4.798-7.295-13.628s12.942-5.91 12.942-5.91c1.701.475 16.886 5.179 26.031 23.727 2.484 5.037.414 11.135-4.624 13.619a10.135 10.135 0 0 1-4.489 1.05z" fill="#fff"></path>
  </symbol>
</svg>